<?xml version="1.0" encoding="UTF-8"?>
<svg version="1.1" xmlns="http://www.w3.org/2000/svg" width="1418" height="1149">
<path d="M0 0 C267.96 0 535.92 0 812 0 C812 162.36 812 324.72 812 492 C544.04 492 276.08 492 0 492 C0 329.64 0 167.28 0 0 Z " fill="#FE801F" transform="translate(203,274)"/>
<path d="M0 0 C263.01 0 526.02 0 797 0 C797 146.19 797 292.38 797 443 C756.41 443 715.82 443 674 443 C673.97797176 401.63096383 673.95950099 360.26193317 673.94893467 318.89289282 C673.9476839 314.01355614 673.94638958 309.13421947 673.94506836 304.25488281 C673.94480605 303.28345763 673.94454374 302.31203245 673.94427348 301.31117015 C673.93991719 285.56329416 673.93202986 269.81542182 673.9228472 254.06754799 C673.91350953 237.91966136 673.90794415 221.77177664 673.90591151 205.62388742 C673.90453652 195.65252535 673.90018721 185.68117356 673.89208353 175.70981465 C673.88681468 168.88048215 673.88519603 162.051155 673.88649862 155.22182061 C673.88714178 151.27634663 673.88612695 147.33089066 673.88079453 143.38541985 C673.87595463 139.77821454 673.87566527 136.17103946 673.87910111 132.5638328 C673.87972863 130.63069502 673.87539217 128.69755763 673.87091869 126.76442492 C673.87290974 125.62833926 673.87490079 124.4922536 673.87695217 123.3217411 C673.87638259 121.84197098 673.87638259 121.84197098 673.8758015 120.3323065 C674 118 674 118 675 116 C451.92 116 228.84 116 -1 116 C-0.67 77.72 -0.34 39.44 0 0 Z " fill="#2B4486" transform="translate(375,121)"/>
<path d="M0 0 C39.166875 -0.0309375 39.166875 -0.0309375 79.125 -0.0625 C87.35066895 -0.071604 95.57633789 -0.08070801 104.05126953 -0.09008789 C114.14428711 -0.09460449 114.14428711 -0.09460449 118.87863159 -0.09544373 C122.16468998 -0.0963703 125.45073199 -0.10009748 128.73678589 -0.10557556 C132.9436998 -0.1124946 137.1505903 -0.11448016 141.35750937 -0.11307228 C142.89185268 -0.11336616 144.42619691 -0.11531327 145.96053529 -0.11921513 C186.71887594 -0.21795064 225.15013873 9.4460483 255.62890625 37.6328125 C274.07142809 56.04495127 286.0390082 81.54646161 286.203125 107.77734375 C286.20882507 108.50635391 286.21452515 109.23536407 286.22039795 109.98646545 C286.22979419 111.52522356 286.23636038 113.06400129 286.24023438 114.6027832 C286.24984434 116.9002845 286.28087801 119.19685217 286.3125 121.49414062 C286.41345612 135.26492645 284.75859619 148.32463379 279.375 161.125 C279.02945068 161.96337402 278.68390137 162.80174805 278.32788086 163.66552734 C273.18916796 175.70690298 266.12481391 185.60304252 257 195 C256.32710937 195.74636719 255.65421875 196.49273438 254.9609375 197.26171875 C246.76537999 206.05582821 236.4072212 212.15429863 226 218 C227.44702379 222.16590532 229.50262466 225.27896035 232.125 228.8125 C237.70834947 236.44279552 242.91535973 244.3123614 248.11376953 252.20825195 C251.93187435 257.98400498 255.8797535 263.62647344 259.97753906 269.20678711 C263.53659782 274.12218924 266.91647986 279.15873278 270.3125 284.1875 C271.80041409 286.3843633 273.28869568 288.58097774 274.77734375 290.77734375 C275.49519043 291.83679199 276.21303711 292.89624023 276.95263672 293.98779297 C280.17164823 298.72380108 283.42193764 303.43818545 286.6887207 308.14135742 C288.91706849 311.36357981 291.00072536 314.63197472 293 318 C280.59618518 318.46521822 268.19447083 318.81963287 255.78368187 319.03624344 C250.01897683 319.14026522 244.26027286 319.28105142 238.49902344 319.50878906 C232.92873958 319.72757711 227.36418683 319.84595432 221.78993607 319.89754486 C219.67378048 319.93425406 217.55790926 320.00596308 215.44422531 320.11460114 C199.35269532 320.90808546 199.35269532 320.90808546 193.73941803 316.03919983 C189.53536682 311.2318454 186.30877976 305.93497629 183.27659988 300.33289337 C181.66792128 297.39315031 179.84815307 294.68843978 177.9375 291.9375 C177.3290625 291.01582031 176.720625 290.09414063 176.09375 289.14453125 C172.86931605 284.30186458 169.57218956 279.50939451 166.2824707 274.7109375 C163.20675026 270.22431587 160.1357509 265.73460079 157.07421875 261.23828125 C156.08723999 259.78881104 156.08723999 259.78881104 155.08032227 258.31005859 C153.81599852 256.45264404 152.55213247 254.59491781 151.28881836 252.73681641 C150.40722046 251.44203369 150.40722046 251.44203369 149.5078125 250.12109375 C148.99879395 249.3727124 148.48977539 248.62433105 147.96533203 247.85327148 C147.31677246 246.91169189 146.66821289 245.9701123 146 245 C145.54574142 244.17373108 145.09148285 243.34746216 144.62345886 242.49615479 C141.55159048 237.18586511 141.55159048 237.18586511 136.48590088 234.08732605 C133.48310998 233.74758689 130.61796435 233.71732174 127.59765625 233.8046875 C126.64145386 233.7951001 125.68525146 233.7855127 124.70007324 233.77563477 C121.15412352 233.7545455 117.60808281 233.81980246 114.0625 233.875 C102.1515625 233.936875 102.1515625 233.936875 90 234 C90 261.72 90 289.44 90 318 C60.3 318 30.6 318 0 318 C0 213.06 0 108.12 0 0 Z " fill="#FBF9CD" transform="translate(470,362)"/>
<path d="M0 0 C15.1284375 -0.12375 15.1284375 -0.12375 30.5625 -0.25 C35.29122437 -0.30462402 35.29122437 -0.30462402 40.11547852 -0.36035156 C42.6616142 -0.37205248 45.20775748 -0.38224096 47.75390625 -0.390625 C49.03744995 -0.41108887 50.32099365 -0.43155273 51.64343262 -0.45263672 C66.98487724 -0.45844292 82.68409793 3.25932473 94.18359375 13.9921875 C104.70366627 25.6208268 105.86255125 38.73569731 105.1640625 53.72119141 C104.41168363 64.17164435 99.91648924 73.64162218 92.25 80.8125 C78.56427974 91.84937118 62.21345758 93.16778241 45.3125 93.09765625 C43.58483398 93.09614563 43.58483398 93.09614563 41.82226562 93.09460449 C37.54816686 93.08939972 33.27408235 93.07543858 29 93.0625 C19.43 93.041875 9.86 93.02125 0 93 C0 62.31 0 31.62 0 0 Z " fill="#FE801F" transform="translate(560,433)"/>
<path d="M0 0 C0.66 0 1.32 0 2 0 C2 146.19 2 292.38 2 443 C-38.59 443 -79.18 443 -121 443 C-121 442.34 -121 441.68 -121 441 C-81.07 441 -41.14 441 0 441 C0 295.47 0 149.94 0 0 Z " fill="#32509E" transform="translate(1170,121)"/>
<path d="M0 0 C0.66 0 1.32 0 2 0 C2 38.28 2 76.56 2 116 C1.01 116 0.02 116 -1 116 C-0.67 77.72 -0.34 39.44 0 0 Z " fill="#34519C" transform="translate(375,121)"/>
</svg>
